<svg width="592" height="463" viewBox="0 0 592 463" fill="none" xmlns="http://www.w3.org/2000/svg">
<path d="M503.02 255.781L366.765 177.083C365.18 176.168 365.381 174.573 367.208 173.514L448.447 126.611C450.274 125.557 453.044 125.44 454.625 126.356L590.88 205.054C592.466 205.969 592.265 207.564 590.438 208.623L509.199 255.526C507.372 256.58 504.602 256.696 503.02 255.781Z" fill="black" fill-opacity="0.15"/>
<path d="M591.951 184.669L586.313 185.656L452.757 108.518C451.104 107.562 448.218 107.683 446.31 108.786L369.909 152.897L360.001 154.635V157.86C359.983 158.481 360.345 159.071 361.109 159.513L499.186 239.26C500.839 240.216 503.725 240.096 505.633 238.992L590.365 190.074C591.406 189.476 591.933 188.707 591.938 187.979V184.669H591.951Z" fill="#312A91"/>
<g opacity="0.5">
<path d="M591.951 184.669L586.313 185.656L452.757 108.518C451.104 107.562 448.218 107.683 446.31 108.786L369.909 152.897L360.001 154.635V157.86C359.983 158.481 360.345 159.071 361.109 159.513L499.186 239.26C500.839 240.216 503.725 240.096 505.633 238.992L590.365 190.074C591.406 189.476 591.933 188.707 591.938 187.979V184.669H591.951Z" fill="url(#paint0_radial_1129_11031)" style="mix-blend-mode:lighten"/>
</g>
<path d="M590.375 188.082L505.642 236.999C503.735 238.103 500.849 238.219 499.196 237.268L361.118 157.52C360.354 157.078 359.993 156.484 360.01 155.867V156.712C359.993 157.333 360.354 157.922 361.118 158.365L499.196 238.112C500.849 239.068 503.735 238.947 505.642 237.844L590.375 188.926C591.416 188.327 591.943 187.559 591.948 186.831V185.986C591.948 186.715 591.412 187.483 590.375 188.082Z" fill="url(#paint1_radial_1129_11031)"/>
<path d="M499.194 235.972L361.117 156.225C359.464 155.269 359.674 153.607 361.581 152.504L446.314 103.586C448.222 102.482 451.108 102.366 452.761 103.318L590.838 183.065C592.491 184.021 592.281 185.683 590.374 186.786L505.641 235.704C503.733 236.808 500.847 236.924 499.194 235.972Z" fill="#312A91"/>
<g opacity="0.7">
<path d="M499.194 235.972L361.117 156.225C359.464 155.269 359.674 153.607 361.581 152.504L446.314 103.586C448.222 102.482 451.108 102.366 452.761 103.318L590.838 183.065C592.491 184.021 592.281 185.683 590.374 186.786L505.641 235.704C503.733 236.808 500.847 236.924 499.194 235.972Z" fill="url(#paint2_linear_1129_11031)" style="mix-blend-mode:lighten"/>
</g>
<g opacity="0.4">
<path opacity="0.5" d="M591.951 183.999L586.313 184.986L452.757 107.848C451.104 106.892 448.218 107.013 446.31 108.116L369.909 152.227L360.001 153.965V154.573C359.983 155.194 360.345 155.783 361.109 156.225L499.186 235.973C500.839 236.929 503.725 236.808 505.633 235.705L590.365 186.787C591.406 186.188 591.933 185.42 591.938 184.692V184.004L591.951 183.999Z" fill="url(#paint3_radial_1129_11031)"/>
<g opacity="0.7">
<path d="M499.194 235.298L361.117 155.551C359.464 154.595 359.674 152.929 361.581 151.83L446.314 102.912C448.222 101.808 451.108 101.692 452.761 102.644L590.838 182.391C592.491 183.347 592.281 185.009 590.374 186.112L505.641 235.03C503.733 236.133 500.847 236.25 499.194 235.298Z" fill="url(#paint4_radial_1129_11031)" style="mix-blend-mode:lighten"/>
</g>
<path d="M499.194 235.298L361.117 155.551C359.464 154.595 359.674 152.929 361.581 151.83L446.314 102.912C448.222 101.808 451.108 101.692 452.761 102.644L590.838 182.391C592.491 183.347 592.281 185.009 590.374 186.112L505.641 235.03C503.733 236.133 500.847 236.25 499.194 235.298Z" fill="#312A91"/>
</g>
<path opacity="0.5" d="M499.194 235.298L361.117 155.551C359.464 154.595 359.674 152.928 361.581 151.829L446.314 102.912C448.222 101.808 451.108 101.692 452.761 102.644L590.838 182.391C592.491 183.347 592.281 185.009 590.374 186.112L505.641 235.03C503.733 236.133 500.847 236.249 499.194 235.298Z" fill="url(#paint5_radial_1129_11031)"/>
<path d="M499.194 235.298L361.117 155.551C359.464 154.595 359.674 152.928 361.581 151.829L446.314 102.912C448.222 101.808 451.108 101.692 452.761 102.644L590.838 182.391C592.491 183.347 592.281 185.009 590.374 186.112L505.641 235.03C503.733 236.133 500.847 236.249 499.194 235.298Z" fill="url(#paint6_radial_1129_11031)"/>
<path opacity="0.9" d="M499.959 235.267L361.881 155.52C360.09 154.434 359.768 153.29 362.346 151.798L447.079 102.88C447.936 102.385 448.995 102.09 450.045 102C448.754 101.987 447.378 102.295 446.31 102.912L361.578 151.83C359.67 152.933 359.465 154.599 361.113 155.551L499.191 235.298C500.098 235.821 501.38 236.022 502.671 235.91C501.652 235.897 500.687 235.687 499.959 235.267Z" fill="url(#paint7_radial_1129_11031)"/>
<path opacity="0.2" d="M579.054 188.203C579.555 188.493 579.555 188.962 579.054 189.253C578.554 189.543 577.741 189.543 577.24 189.253C576.74 188.962 576.74 188.493 577.24 188.203C577.741 187.913 578.554 187.913 579.054 188.203Z" fill="#FCCC6B"/>
<path opacity="0.6" d="M581.882 186.568C582.383 186.858 582.383 187.327 581.882 187.617C581.382 187.908 580.569 187.908 580.069 187.617C579.568 187.327 579.568 186.858 580.069 186.568C580.569 186.277 581.382 186.277 581.882 186.568Z" fill="#FCCC6B"/>
<path d="M583.798 186.201C584.506 186.201 585.08 185.869 585.08 185.46C585.08 185.05 584.506 184.718 583.798 184.718C583.09 184.718 582.516 185.05 582.516 185.46C582.516 185.869 583.09 186.201 583.798 186.201Z" fill="#FCCC6B"/>
<path d="M536.377 219.711C536.377 220.055 536.618 220.198 536.918 220.024C537.217 219.85 537.458 219.43 537.458 219.086C537.458 218.742 537.217 218.599 536.918 218.773C536.618 218.947 536.377 219.367 536.377 219.711Z" fill="#180D5B"/>
<path d="M534.246 220.94C534.246 221.284 534.487 221.426 534.787 221.252C535.086 221.078 535.327 220.658 535.327 220.314C535.327 219.97 535.086 219.827 534.787 220.001C534.487 220.176 534.246 220.596 534.246 220.94Z" fill="#180D5B"/>
<path d="M532.111 222.173C532.111 222.517 532.353 222.66 532.652 222.485C532.951 222.311 533.192 221.891 533.192 221.547C533.192 221.203 532.951 221.06 532.652 221.235C532.353 221.409 532.111 221.829 532.111 222.173Z" fill="#180D5B"/>
<path d="M565.732 202.762C565.732 203.106 565.974 203.249 566.273 203.075C566.572 202.9 566.813 202.48 566.813 202.136C566.813 201.792 566.572 201.649 566.273 201.824C565.974 201.998 565.732 202.418 565.732 202.762Z" fill="#180D5B"/>
<path d="M563.598 203.995C563.598 204.339 563.839 204.482 564.138 204.307C564.438 204.133 564.679 203.713 564.679 203.369C564.679 203.025 564.438 202.882 564.138 203.057C563.839 203.231 563.598 203.651 563.598 203.995Z" fill="#180D5B"/>
<path d="M561.467 205.223C561.467 205.567 561.708 205.71 562.007 205.536C562.307 205.362 562.548 204.942 562.548 204.598C562.548 204.254 562.307 204.111 562.007 204.285C561.708 204.459 561.467 204.879 561.467 205.223Z" fill="#180D5B"/>
<path d="M546.992 213.582C546.992 214.011 547.251 214.203 547.573 214.02L551.357 211.835C551.678 211.652 551.938 211.156 551.938 210.727C551.938 210.303 551.678 210.106 551.357 210.289L547.573 212.474C547.251 212.657 546.992 213.153 546.992 213.582Z" fill="#180D5B"/>
<path d="M344.922 439.755L213.135 363.635C211.549 362.719 211.75 361.124 213.577 360.066L410.972 245.942C412.799 244.888 415.569 244.772 417.151 245.687L548.938 321.807C550.524 322.723 550.323 324.318 548.496 325.376L351.101 439.5C349.273 440.554 346.504 440.67 344.922 439.755Z" fill="black" fill-opacity="0.15"/>
<path d="M552.861 301.418L547.223 302.405L418.134 227.845C416.481 226.889 413.595 227.009 411.687 228.113L219.13 339.444L209.221 341.178V344.403C209.203 345.024 209.565 345.614 210.329 346.056L343.94 423.23C345.592 424.186 348.478 424.065 350.386 422.962L551.275 306.819C552.316 306.22 552.843 305.452 552.847 304.724V301.413L552.861 301.418Z" fill="#312A91"/>
<g opacity="0.5">
<path d="M552.861 301.418L547.223 302.405L418.134 227.845C416.481 226.889 413.595 227.009 411.687 228.113L219.13 339.444L209.221 341.178V344.403C209.203 345.024 209.565 345.614 210.329 346.056L343.94 423.23C345.592 424.186 348.478 424.065 350.386 422.962L551.275 306.819C552.316 306.22 552.843 305.452 552.847 304.724V301.413L552.861 301.418Z" fill="url(#paint8_radial_1129_11031)" style="mix-blend-mode:lighten"/>
</g>
<path d="M551.285 304.831L350.396 420.974C348.488 422.077 345.602 422.194 343.949 421.242L210.339 344.068C209.575 343.626 209.213 343.032 209.231 342.415V343.259C209.213 343.88 209.575 344.47 210.339 344.912L343.949 422.086C345.602 423.042 348.488 422.922 350.396 421.818L551.285 305.675C552.326 305.077 552.853 304.308 552.857 303.58V302.736C552.857 303.464 552.321 304.232 551.285 304.831Z" fill="url(#paint9_radial_1129_11031)"/>
<path d="M343.948 419.942L210.338 342.768C208.685 341.812 208.895 340.15 210.802 339.047L411.691 222.904C413.599 221.8 416.485 221.684 418.138 222.636L551.748 299.81C553.401 300.766 553.191 302.428 551.283 303.531L350.394 419.674C348.487 420.777 345.601 420.894 343.948 419.942Z" fill="#312A91"/>
<g opacity="0.7">
<path d="M343.948 419.942L210.338 342.768C208.685 341.812 208.895 340.15 210.802 339.047L411.691 222.904C413.599 221.8 416.485 221.684 418.138 222.636L551.748 299.81C553.401 300.766 553.191 302.428 551.283 303.531L350.394 419.674C348.487 420.777 345.601 420.894 343.948 419.942Z" fill="url(#paint10_linear_1129_11031)" style="mix-blend-mode:lighten"/>
</g>
<g opacity="0.4">
<path opacity="0.5" d="M552.861 300.748L547.223 301.735L418.134 227.175C416.481 226.219 413.595 226.339 411.687 227.443L219.13 338.774L209.221 340.512V341.12C209.203 341.741 209.565 342.335 210.329 342.773L343.94 419.946C345.592 420.902 348.478 420.782 350.386 419.678L551.275 303.536C552.316 302.937 552.843 302.169 552.847 301.44V300.752L552.861 300.748Z" fill="url(#paint11_radial_1129_11031)"/>
<g opacity="0.7">
<path d="M343.948 419.267L210.338 342.093C208.685 341.137 208.895 339.476 210.802 338.372L411.691 222.229C413.599 221.126 416.485 221.01 418.138 221.961L551.748 299.135C553.401 300.091 553.191 301.753 551.283 302.856L350.394 418.999C348.487 420.103 345.601 420.219 343.948 419.267Z" fill="url(#paint12_radial_1129_11031)" style="mix-blend-mode:lighten"/>
</g>
<path d="M343.948 419.267L210.338 342.093C208.685 341.137 208.895 339.476 210.802 338.372L411.691 222.229C413.599 221.126 416.485 221.01 418.138 221.961L551.748 299.135C553.401 300.091 553.191 301.753 551.283 302.856L350.394 418.999C348.487 420.103 345.601 420.219 343.948 419.267Z" fill="#312A91"/>
</g>
<path d="M343.948 419.267L210.338 342.093C208.685 341.137 208.895 339.476 210.802 338.372L411.691 222.229C413.599 221.126 416.485 221.01 418.138 221.961L551.748 299.135C553.401 300.091 553.191 301.753 551.283 302.856L350.394 418.999C348.487 420.103 345.601 420.219 343.948 419.267Z" fill="url(#paint13_radial_1129_11031)"/>
<path opacity="0.9" d="M344.712 419.241L211.102 342.067C209.311 340.981 208.989 339.837 211.567 338.345L412.456 222.203C413.313 221.707 414.372 221.412 415.422 221.322C414.131 221.309 412.755 221.617 411.687 222.234L210.798 338.377C208.891 339.48 208.685 341.146 210.334 342.098L343.944 419.272C344.851 419.795 346.133 419.996 347.424 419.884C346.406 419.871 345.441 419.661 344.712 419.241Z" fill="url(#paint14_radial_1129_11031)"/>
<path d="M410.039 215.086L393.528 73.3539C393.492 73.0501 393.421 72.7642 393.336 72.4872L394.757 71.8484L391.46 69.9587L391.469 69.9721C390.061 69.1679 388.257 69.0563 386.675 69.9721L187.712 184.882C185.831 185.968 184.776 188.067 185.027 190.225L201.538 331.957C201.739 333.677 202.784 335.013 204.156 335.701L207.368 337.546L206.886 335.897C207.395 335.799 207.904 335.625 208.391 335.343L407.355 220.433C409.235 219.348 410.29 217.248 410.039 215.09V215.086Z" fill="#312A91"/>
<path d="M410.039 215.086L393.528 73.3539C393.492 73.0501 393.421 72.7642 393.336 72.4872L394.757 71.8484L391.46 69.9587L391.469 69.9721C390.061 69.1679 388.257 69.0563 386.675 69.9721L187.712 184.882C185.831 185.968 184.776 188.067 185.027 190.225L201.538 331.957C201.739 333.677 202.784 335.013 204.156 335.701L207.368 337.546L206.886 335.897C207.395 335.799 207.904 335.625 208.391 335.343L407.355 220.433C409.235 219.348 410.29 217.248 410.039 215.09V215.086Z" fill="url(#paint15_linear_1129_11031)"/>
<path d="M411.103 222.609L212.14 337.519C209.142 339.248 205.354 337.345 204.956 333.909L188.445 192.177C188.194 190.02 189.249 187.92 191.13 186.834L390.089 71.9246C393.086 70.1957 396.875 72.0988 397.272 75.5342L413.784 217.266C414.034 219.424 412.979 221.524 411.099 222.609H411.103Z" fill="url(#paint16_linear_1129_11031)"/>
<path opacity="0.9" d="M189.727 188L186.323 186.035C185.679 186.776 185.246 187.679 185.076 188.648L188.489 190.618C188.659 189.649 189.088 188.742 189.727 188Z" fill="#3E8FDB"/>
<path opacity="0.9" d="M205.828 334.419L189.316 192.687C188.972 190.274 189.692 188.943 192.001 187.344L390.96 72.4384C392.399 71.6074 394.012 71.6208 395.352 72.2329C393.891 71.1562 391.854 70.9061 390.085 71.9291L191.126 186.834C189.245 187.92 188.191 190.02 188.441 192.177L204.952 333.909C205.162 335.696 206.292 337.063 207.744 337.729C206.726 336.979 205.989 335.835 205.823 334.423L205.828 334.419Z" fill="url(#paint17_linear_1129_11031)"/>
<path d="M276.764 335.643L271.622 338.609C271.099 338.913 270.304 338.944 269.853 338.681L264.456 335.567C264 335.303 264.058 334.848 264.581 334.544L269.723 331.577C270.246 331.274 271.041 331.242 271.492 331.506L276.889 334.62C277.344 334.883 277.286 335.339 276.764 335.643Z" fill="#42E8E0"/>
<path d="M403.315 318.09L349.108 349.388C348.585 349.692 347.79 349.723 347.339 349.46L341.942 346.346C341.487 346.083 341.545 345.627 342.067 345.323L396.275 314.025C396.797 313.721 397.592 313.69 398.044 313.953L403.44 317.067C403.896 317.331 403.838 317.786 403.315 318.09Z" fill="#42E8E0"/>
<path d="M443.5 294.891L438.358 297.858C437.835 298.161 437.04 298.193 436.589 297.929L431.192 294.815C430.737 294.552 430.795 294.096 431.317 293.792L436.459 290.826C436.982 290.522 437.777 290.491 438.228 290.754L443.625 293.868C444.081 294.132 444.023 294.587 443.5 294.891Z" fill="#42E8E0"/>
<path d="M453.717 288.99L448.575 291.956C448.052 292.26 447.257 292.291 446.806 292.028L441.409 288.914C440.953 288.65 441.012 288.195 441.534 287.891L446.676 284.925C447.199 284.621 447.994 284.59 448.445 284.853L453.842 287.967C454.297 288.23 454.239 288.686 453.717 288.99Z" fill="#42E8E0"/>
<path d="M444.648 283.754L439.506 286.72C438.984 287.024 438.189 287.055 437.737 286.792L432.341 283.678C431.885 283.415 431.943 282.959 432.466 282.655L437.608 279.689C438.13 279.385 438.926 279.354 439.377 279.617L444.773 282.731C445.229 282.995 445.171 283.45 444.648 283.754Z" fill="#42E8E0"/>
<path d="M464.086 283.004L458.944 285.97C458.421 286.274 457.626 286.305 457.175 286.041L451.778 282.928C451.323 282.664 451.381 282.208 451.903 281.905L457.045 278.938C457.568 278.634 458.363 278.603 458.814 278.867L464.211 281.981C464.667 282.244 464.609 282.7 464.086 283.004Z" fill="#42E8E0"/>
<path d="M329.144 360.915L319.307 366.593C318.785 366.896 317.989 366.928 317.538 366.664L312.142 363.55C311.686 363.287 311.744 362.831 312.267 362.527L322.104 356.849C322.626 356.546 323.422 356.514 323.873 356.778L329.269 359.892C329.725 360.155 329.667 360.611 329.144 360.915Z" fill="#42E8E0"/>
<path d="M343.998 352.337L334.161 358.015C333.638 358.319 332.843 358.35 332.392 358.087L326.995 354.973C326.539 354.709 326.597 354.254 327.12 353.95L336.957 348.272C337.48 347.968 338.275 347.937 338.726 348.2L344.123 351.314C344.579 351.578 344.521 352.033 343.998 352.337Z" fill="#42E8E0"/>
<path d="M418.629 309.249L408.792 314.927C408.269 315.231 407.474 315.262 407.023 314.999L401.626 311.885C401.17 311.621 401.228 311.166 401.751 310.862L411.588 305.184C412.111 304.88 412.906 304.849 413.357 305.112L418.754 308.226C419.209 308.49 419.151 308.945 418.629 309.249Z" fill="#42E8E0"/>
<path d="M433.488 300.668L423.651 306.346C423.128 306.649 422.333 306.681 421.882 306.417L416.485 303.303C416.03 303.04 416.088 302.584 416.61 302.28L426.448 296.602C426.97 296.299 427.765 296.267 428.217 296.531L433.613 299.645C434.069 299.908 434.011 300.364 433.488 300.668Z" fill="#42E8E0"/>
<path d="M294.418 325.448L289.276 328.415C288.753 328.718 287.958 328.75 287.507 328.486L282.11 325.372C281.655 325.109 281.713 324.653 282.235 324.349L287.377 321.383C287.9 321.079 288.695 321.048 289.146 321.312L294.543 324.425C294.999 324.689 294.941 325.145 294.418 325.448Z" fill="#42E8E0"/>
<path d="M425.992 261.01L281.213 344.599C280.691 344.903 279.896 344.935 279.444 344.671L274.048 341.557C273.592 341.294 273.65 340.838 274.173 340.534L418.952 256.945C419.474 256.641 420.269 256.61 420.721 256.874L426.117 259.987C426.573 260.251 426.515 260.707 425.992 261.01Z" fill="#42E8E0"/>
<path d="M435.668 266.595L290.889 350.184C290.367 350.488 289.571 350.519 289.12 350.255L283.724 347.142C283.268 346.878 283.326 346.422 283.849 346.119L428.627 262.53C429.15 262.226 429.945 262.194 430.396 262.458L435.793 265.572C436.249 265.835 436.191 266.291 435.668 266.595Z" fill="#42E8E0"/>
<path d="M445.34 272.179L300.561 355.768C300.038 356.072 299.243 356.103 298.792 355.839L293.395 352.726C292.94 352.462 292.998 352.006 293.521 351.703L438.299 268.114C438.822 267.81 439.617 267.778 440.068 268.042L445.465 271.156C445.921 271.419 445.863 271.875 445.34 272.179Z" fill="#42E8E0"/>
<path d="M434.43 289.651L310.237 361.352C309.714 361.656 308.919 361.687 308.468 361.424L303.071 358.31C302.616 358.047 302.674 357.591 303.196 357.287L427.389 285.586C427.912 285.282 428.707 285.251 429.158 285.514L434.555 288.628C435.011 288.892 434.953 289.347 434.43 289.651Z" fill="#42E8E0"/>
<path d="M304.059 319.882L298.917 322.848C298.394 323.152 297.599 323.183 297.148 322.92L291.751 319.806C291.295 319.542 291.353 319.087 291.876 318.783L297.018 315.817C297.541 315.513 298.336 315.482 298.787 315.745L304.184 318.859C304.639 319.122 304.581 319.578 304.059 319.882Z" fill="#42E8E0"/>
<path d="M313.699 314.316L308.557 317.282C308.035 317.586 307.239 317.617 306.788 317.353L301.392 314.24C300.936 313.976 300.994 313.52 301.517 313.217L306.659 310.25C307.181 309.946 307.976 309.915 308.428 310.179L313.824 313.293C314.28 313.556 314.222 314.012 313.699 314.316Z" fill="#42E8E0"/>
<path d="M323.34 308.749L318.198 311.715C317.675 312.019 316.88 312.051 316.429 311.787L311.032 308.673C310.576 308.41 310.635 307.954 311.157 307.65L316.299 304.684C316.822 304.38 317.617 304.349 318.068 304.612L323.465 307.726C323.921 307.99 323.862 308.445 323.34 308.749Z" fill="#42E8E0"/>
<path d="M345.547 295.928L340.405 298.894C339.882 299.198 339.087 299.229 338.636 298.966L333.239 295.852C332.784 295.588 332.842 295.133 333.364 294.829L338.506 291.863C339.029 291.559 339.824 291.527 340.275 291.791L345.672 294.905C346.128 295.168 346.069 295.624 345.547 295.928Z" fill="#42E8E0"/>
<path d="M355.187 290.361L350.045 293.328C349.523 293.632 348.728 293.663 348.276 293.399L342.88 290.285C342.424 290.022 342.482 289.566 343.005 289.262L348.147 286.296C348.67 285.992 349.465 285.961 349.916 286.225L355.313 289.338C355.768 289.602 355.71 290.058 355.187 290.361Z" fill="#42E8E0"/>
<path d="M364.828 284.795L359.686 287.761C359.163 288.065 358.368 288.096 357.917 287.833L352.52 284.719C352.065 284.456 352.123 284 352.646 283.696L357.787 280.73C358.31 280.426 359.105 280.395 359.557 280.658L364.953 283.772C365.409 284.036 365.351 284.491 364.828 284.795Z" fill="#42E8E0"/>
<path d="M374.475 279.229L369.333 282.195C368.81 282.499 368.015 282.53 367.564 282.266L362.167 279.153C361.711 278.889 361.769 278.433 362.292 278.13L367.434 275.163C367.957 274.86 368.752 274.828 369.203 275.092L374.6 278.206C375.055 278.469 374.997 278.925 374.475 279.229Z" fill="#42E8E0"/>
<path d="M396.682 266.407L391.54 269.374C391.017 269.677 390.222 269.709 389.771 269.445L384.374 266.331C383.918 266.068 383.976 265.612 384.499 265.308L389.641 262.342C390.164 262.038 390.959 262.007 391.41 262.271L396.807 265.384C397.262 265.648 397.204 266.104 396.682 266.407Z" fill="#42E8E0"/>
<path d="M454.713 277.593L449.571 280.56C449.048 280.864 448.253 280.895 447.802 280.631L442.405 277.517C441.95 277.254 442.008 276.798 442.53 276.494L447.672 273.528C448.195 273.224 448.99 273.193 449.441 273.457L454.838 276.57C455.294 276.834 455.236 277.29 454.713 277.593Z" fill="#42E8E0"/>
<path d="M406.322 260.841L401.18 263.807C400.658 264.111 399.862 264.142 399.411 263.879L394.015 260.765C393.559 260.501 393.617 260.046 394.14 259.742L399.282 256.776C399.804 256.472 400.6 256.441 401.051 256.704L406.447 259.818C406.903 260.081 406.845 260.537 406.322 260.841Z" fill="#42E8E0"/>
<path d="M415.963 255.275L410.821 258.241C410.298 258.545 409.503 258.576 409.052 258.312L403.655 255.199C403.2 254.935 403.258 254.479 403.78 254.176L408.922 251.209C409.445 250.905 410.24 250.874 410.691 251.138L416.088 254.252C416.544 254.515 416.486 254.971 415.963 255.275Z" fill="#42E8E0"/>
<path opacity="0.2" d="M214.422 336.277L483.371 342.12L551.284 302.857C553.192 301.753 553.397 300.087 551.749 299.135L418.139 221.961C416.486 221.005 413.6 221.126 411.692 222.229L214.426 336.277H214.422Z" fill="url(#paint18_radial_1129_11031)"/>
<path opacity="0.2" d="M539.964 304.951C540.465 305.242 540.465 305.711 539.964 306.001C539.464 306.291 538.651 306.291 538.151 306.001C537.65 305.711 537.65 305.242 538.151 304.951C538.651 304.661 539.464 304.661 539.964 304.951Z" fill="#FCCC6B"/>
<path opacity="0.6" d="M542.793 303.316C543.293 303.606 543.293 304.075 542.793 304.366C542.292 304.656 541.479 304.656 540.979 304.366C540.478 304.075 540.478 303.606 540.979 303.316C541.479 303.026 542.292 303.026 542.793 303.316Z" fill="#FCCC6B"/>
<path d="M545.621 301.686C546.121 301.976 546.121 302.445 545.621 302.735C545.12 303.026 544.307 303.026 543.807 302.735C543.307 302.445 543.307 301.976 543.807 301.686C544.307 301.395 545.12 301.395 545.621 301.686Z" fill="#FCCC6B"/>
<path d="M266.931 212.835C266.747 212.835 266.573 212.794 266.408 212.714C265.997 212.508 265.715 212.057 265.648 211.485L264.326 200.554C264.201 199.513 264.759 198.316 265.599 197.833L338.02 156.018C338.449 155.773 338.896 155.741 339.28 155.929C339.691 156.135 339.972 156.586 340.039 157.162L341.362 168.094C341.487 169.135 340.928 170.332 340.088 170.814L267.663 212.629C267.418 212.768 267.167 212.839 266.931 212.839V212.835ZM338.748 156.514C338.61 156.514 338.471 156.572 338.368 156.63L265.948 198.445C265.358 198.785 264.934 199.709 265.027 200.464L266.35 211.396C266.39 211.731 266.528 211.981 266.725 212.075C266.935 212.178 267.158 212.093 267.31 212.008L339.735 170.193C340.325 169.854 340.75 168.929 340.656 168.174L339.333 157.242C339.293 156.907 339.159 156.662 338.958 156.563C338.891 156.528 338.82 156.514 338.748 156.514Z" fill="#42E8E0"/>
<path d="M269.477 233.889C269.294 233.889 269.12 233.849 268.955 233.769C268.544 233.563 268.262 233.112 268.195 232.54L266.873 221.609C266.748 220.568 267.306 219.37 268.146 218.888L340.567 177.073C340.996 176.828 341.442 176.796 341.827 176.984C342.238 177.19 342.519 177.641 342.586 178.217L343.908 189.149C344.034 190.19 343.475 191.387 342.635 191.869L270.21 233.684C269.964 233.822 269.719 233.894 269.477 233.894V233.889ZM341.295 177.569C341.157 177.569 341.018 177.627 340.915 177.685L268.495 219.5C267.905 219.84 267.481 220.764 267.574 221.519L268.897 232.451C268.937 232.786 269.075 233.036 269.272 233.13C269.482 233.233 269.705 233.148 269.857 233.063L342.282 191.248C342.872 190.909 343.296 189.984 343.203 189.229L341.88 178.297C341.84 177.962 341.706 177.717 341.505 177.618C341.438 177.583 341.366 177.569 341.295 177.569Z" fill="#42E8E0"/>
<path d="M345.008 212.611L272.582 254.426C271.868 254.837 271.202 254.444 271.095 253.55L269.772 242.619C269.665 241.721 270.157 240.662 270.867 240.246L343.292 198.432C344.007 198.021 344.673 198.414 344.78 199.307L346.102 210.239C346.209 211.137 345.718 212.196 345.008 212.611Z" fill="#42E8E0"/>
<path d="M275.969 222.716C276.148 223.686 275.558 224.892 274.651 225.419C273.74 225.942 272.86 225.584 272.676 224.62C272.498 223.65 273.087 222.444 273.994 221.917C274.906 221.394 275.786 221.751 275.969 222.716Z" fill="#42E8E0"/>
<path d="M281.419 219.571C281.598 220.541 281.008 221.747 280.101 222.274C279.195 222.801 278.31 222.439 278.127 221.475C277.944 220.51 278.538 219.299 279.445 218.772C280.356 218.245 281.236 218.606 281.419 219.571Z" fill="#42E8E0"/>
<path d="M286.873 216.422C287.052 217.391 286.462 218.598 285.555 219.125C284.644 219.652 283.764 219.29 283.581 218.325C283.402 217.356 283.992 216.149 284.899 215.622C285.81 215.1 286.69 215.457 286.873 216.422Z" fill="#42E8E0"/>
<path d="M292.324 213.273C292.503 214.242 291.913 215.448 291.006 215.975C290.095 216.498 289.215 216.141 289.032 215.176C288.853 214.206 289.443 213 290.35 212.473C291.261 211.95 292.141 212.308 292.324 213.273Z" fill="#42E8E0"/>
<path d="M297.779 210.128C297.957 211.097 297.368 212.303 296.461 212.83C295.55 213.353 294.669 212.996 294.486 212.031C294.303 211.066 294.897 209.855 295.804 209.328C296.716 208.801 297.596 209.163 297.779 210.128Z" fill="#42E8E0"/>
<path d="M303.233 206.978C303.411 207.947 302.822 209.154 301.915 209.681C301.003 210.208 300.123 209.846 299.94 208.881C299.761 207.912 300.351 206.705 301.258 206.178C302.165 205.651 303.049 206.013 303.233 206.978Z" fill="#42E8E0"/>
<path d="M308.684 203.828C308.862 204.798 308.273 206.004 307.366 206.531C306.459 207.054 305.574 206.697 305.391 205.732C305.213 204.762 305.802 203.556 306.709 203.029C307.616 202.506 308.501 202.864 308.684 203.828Z" fill="#42E8E0"/>
<path d="M157.191 462.181L114.804 437.708C113.219 436.793 113.42 435.198 115.247 434.139L196.486 387.236C198.313 386.182 201.083 386.065 202.664 386.981L245.051 411.454C246.637 412.369 246.436 413.964 244.609 415.023L163.369 461.926C161.542 462.98 158.772 463.096 157.191 462.181Z" fill="black" fill-opacity="0.15"/>
<path d="M74.5788 418.444L0.967787 379.213C-0.466396 378.388 -0.284596 376.953 1.36774 376L74.8342 333.785C76.4866 332.836 78.9914 332.732 80.4215 333.556L154.032 372.787C155.466 373.611 155.285 375.047 153.632 376L80.166 418.215C78.5137 419.164 76.0089 419.268 74.5788 418.444Z" fill="black" fill-opacity="0.15"/>
<path d="M246.123 391.064L240.485 392.051L200.802 369.138C199.149 368.182 196.263 368.303 194.355 369.406L117.954 413.517L108.046 415.255V418.48C108.028 419.101 108.39 419.691 109.153 420.133L153.363 445.656C155.016 446.612 157.901 446.491 159.809 445.387L244.542 396.47C245.583 395.871 246.11 395.103 246.114 394.375V391.064H246.123Z" fill="#312A91"/>
<g opacity="0.5">
<path d="M246.123 391.064L240.485 392.051L200.802 369.138C199.149 368.182 196.263 368.303 194.355 369.406L117.954 413.517L108.046 415.255V418.48C108.028 419.101 108.39 419.691 109.153 420.133L153.363 445.656C155.016 446.612 157.901 446.491 159.809 445.387L244.542 396.47C245.583 395.871 246.11 395.103 246.114 394.375V391.064H246.123Z" fill="url(#paint19_radial_1129_11031)" style="mix-blend-mode:lighten"/>
</g>
<path d="M244.546 394.478L159.813 443.395C157.905 444.499 155.019 444.615 153.367 443.663L109.157 418.141C108.393 417.699 108.032 417.105 108.049 416.488V417.333C108.032 417.954 108.393 418.543 109.157 418.986L153.367 444.508C155.019 445.464 157.905 445.343 159.813 444.24L244.546 395.322C245.587 394.723 246.114 393.955 246.118 393.227V392.382C246.118 393.111 245.582 393.879 244.546 394.478Z" fill="url(#paint20_radial_1129_11031)"/>
<path d="M153.371 442.368L109.162 416.845C107.509 415.889 107.719 414.228 109.626 413.124L194.359 364.206C196.267 363.103 199.153 362.987 200.805 363.938L245.015 389.46C246.668 390.416 246.458 392.078 244.55 393.182L159.817 442.099C157.91 443.203 155.024 443.319 153.371 442.368Z" fill="#312A91"/>
<g opacity="0.7">
<path d="M153.371 442.368L109.162 416.845C107.509 415.889 107.719 414.228 109.626 413.124L194.359 364.206C196.267 363.103 199.153 362.987 200.805 363.938L245.015 389.46C246.668 390.416 246.458 392.078 244.55 393.182L159.817 442.099C157.91 443.203 155.024 443.319 153.371 442.368Z" fill="url(#paint21_linear_1129_11031)" style="mix-blend-mode:lighten"/>
</g>
<g opacity="0.4">
<path opacity="0.5" d="M246.123 390.394L240.485 391.382L200.802 368.468C199.149 367.512 196.263 367.633 194.355 368.736L117.954 412.847L108.046 414.585V415.193C108.028 415.814 108.39 416.408 109.153 416.846L153.363 442.368C155.016 443.324 157.901 443.203 159.809 442.1L244.542 393.182C245.583 392.583 246.11 391.815 246.114 391.087V390.399L246.123 390.394Z" fill="url(#paint22_radial_1129_11031)"/>
<g opacity="0.7">
<path d="M153.371 441.693L109.162 416.171C107.509 415.215 107.719 413.553 109.626 412.45L194.359 363.532C196.267 362.429 199.153 362.312 200.805 363.264L245.015 388.786C246.668 389.742 246.458 391.404 244.55 392.507L159.817 441.425C157.91 442.529 155.024 442.645 153.371 441.693Z" fill="url(#paint23_radial_1129_11031)" style="mix-blend-mode:lighten"/>
</g>
<path d="M153.371 441.693L109.162 416.171C107.509 415.215 107.719 413.553 109.626 412.45L194.359 363.532C196.267 362.429 199.153 362.312 200.805 363.264L245.015 388.786C246.668 389.742 246.458 391.404 244.55 392.507L159.817 441.425C157.91 442.529 155.024 442.645 153.371 441.693Z" fill="#312A91"/>
</g>
<path d="M142.57 437.833C142.57 438.151 142.347 438.28 142.074 438.119C141.802 437.963 141.578 437.574 141.578 437.261C141.578 436.949 141.802 436.815 142.074 436.976C142.347 437.136 142.57 437.521 142.57 437.833Z" fill="#180D5B"/>
<path d="M144.527 438.964C144.527 439.281 144.304 439.41 144.031 439.25C143.759 439.093 143.535 438.705 143.535 438.392C143.535 438.079 143.759 437.945 144.031 438.106C144.304 438.262 144.527 438.651 144.527 438.964Z" fill="#180D5B"/>
<path d="M146.484 440.089C146.484 440.406 146.261 440.536 145.988 440.375C145.716 440.219 145.492 439.83 145.492 439.517C145.492 439.205 145.716 439.071 145.988 439.231C146.261 439.388 146.484 439.776 146.484 440.089Z" fill="#180D5B"/>
<path d="M115.654 422.291C115.654 422.609 115.43 422.738 115.158 422.577C114.885 422.421 114.662 422.032 114.662 421.72C114.662 421.407 114.885 421.273 115.158 421.434C115.43 421.59 115.654 421.979 115.654 422.291Z" fill="#180D5B"/>
<path d="M117.611 423.422C117.611 423.739 117.388 423.868 117.115 423.708C116.843 423.551 116.619 423.163 116.619 422.85C116.619 422.537 116.843 422.403 117.115 422.564C117.388 422.725 117.611 423.109 117.611 423.422Z" fill="#180D5B"/>
<path d="M119.568 424.552C119.568 424.869 119.345 424.998 119.072 424.837C118.8 424.681 118.576 424.292 118.576 423.98C118.576 423.667 118.8 423.533 119.072 423.694C119.345 423.85 119.568 424.239 119.568 424.552Z" fill="#180D5B"/>
<path opacity="0.5" d="M153.371 441.693L109.162 416.171C107.509 415.215 107.719 413.553 109.626 412.45L194.359 363.532C196.267 362.429 199.153 362.312 200.805 363.264L245.015 388.786C246.668 389.742 246.458 391.404 244.55 392.507L159.817 441.425C157.91 442.529 155.024 442.645 153.371 441.693Z" fill="url(#paint24_radial_1129_11031)"/>
<path d="M153.371 441.693L109.162 416.171C107.509 415.215 107.719 413.553 109.626 412.45L194.359 363.532C196.267 362.429 199.153 362.312 200.805 363.264L245.015 388.786C246.668 389.742 246.458 391.404 244.55 392.507L159.817 441.425C157.91 442.529 155.024 442.645 153.371 441.693Z" fill="url(#paint25_radial_1129_11031)"/>
<path opacity="0.9" d="M154.136 441.662L109.926 416.14C108.135 415.054 107.813 413.91 110.391 412.418L195.124 363.501C195.981 363.005 197.04 362.71 198.09 362.621C196.799 362.607 195.423 362.915 194.355 363.532L109.623 412.45C107.715 413.553 107.509 415.219 109.158 416.171L153.367 441.693C154.274 442.216 155.556 442.417 156.847 442.305C155.829 442.292 154.864 442.082 154.136 441.662Z" fill="url(#paint26_radial_1129_11031)"/>
<path d="M132.839 432.213C132.839 432.607 132.602 432.785 132.307 432.615L128.84 430.614C128.545 430.444 128.309 429.989 128.309 429.6C128.309 429.207 128.545 429.028 128.84 429.198L132.307 431.199C132.602 431.369 132.839 431.825 132.839 432.213Z" fill="#180D5B"/>
<path opacity="0.2" d="M233.23 394.598C233.73 394.889 233.73 395.358 233.23 395.648C232.73 395.938 231.917 395.938 231.416 395.648C230.916 395.358 230.916 394.889 231.416 394.598C231.917 394.308 232.73 394.308 233.23 394.598Z" fill="#FCCC6B"/>
<path opacity="0.6" d="M236.054 392.968C236.555 393.258 236.555 393.727 236.054 394.018C235.554 394.308 234.741 394.308 234.24 394.018C233.74 393.727 233.74 393.258 234.24 392.968C234.741 392.677 235.554 392.677 236.054 392.968Z" fill="#FCCC6B"/>
<path d="M238.88 391.333C239.381 391.623 239.381 392.092 238.88 392.382C238.38 392.673 237.567 392.673 237.067 392.382C236.566 392.092 236.566 391.623 237.067 391.333C237.567 391.042 238.38 391.042 238.88 391.333Z" fill="#FCCC6B"/>
<path d="M143.537 327.031V327.06L82.1089 362.53L82.0273 400.515L143.456 365.046V365.017C144.62 364.376 145.174 363.491 145.174 362.605L145.255 324.62C145.255 325.505 144.673 326.367 143.537 327.031Z" fill="url(#paint27_linear_1129_11031)"/>
<path d="M73.8144 362.529L12.8055 327.077C12.0542 326.606 11.0815 324.922 11.0815 324.678L11 362.663C11 362.914 11.2737 364.073 12.6657 365.046L73.7037 400.515C75.981 401.849 79.7202 401.849 82.0208 400.515L82.1023 362.529C79.8017 363.834 76.0859 363.834 73.8086 362.529H73.8144Z" fill="#ECF5FE"/>
<path d="M12.805 322.255C10.5103 323.583 10.487 325.743 12.7817 327.071L73.8081 362.541C76.1029 363.869 79.7954 363.869 82.1135 362.541L143.524 327.071C145.819 325.743 145.842 323.583 143.548 322.255L82.5212 286.808C80.2264 285.481 76.5338 285.481 74.2158 286.808L12.805 322.255Z" fill="url(#paint28_linear_1129_11031)"/>
<path d="M13.3184 360.986L72.8188 395.361V366.682L13.3184 332.336V360.992V360.986Z" fill="#B0E9EA"/>
<path d="M61.584 368.365L70.9319 373.782V380.357L61.584 374.964V368.365Z" fill="#ECF5FE"/>
<path d="M32.9105 358.021L14.8438 347.573V340.997L32.9105 351.417V358.015V358.021Z" fill="#ECF5FE"/>
<path d="M42.1074 373.59L47.3551 376.688V370.113L42.1074 367.014V373.59Z" fill="#ECF5FE"/>
<path d="M34.541 359.093L39.7887 362.192V355.616L34.541 352.518V359.093Z" fill="#36B1BA"/>
<path d="M41.3047 363.106L46.5523 366.204V359.629L41.3047 356.53V363.106Z" fill="#36B1BA"/>
<path d="M48.0664 367.119L53.314 370.218V363.642L48.0664 360.543V367.119Z" fill="#36B1BA"/>
<path d="M54.8223 371.132L60.0699 374.23V367.655L54.8223 364.556V371.132Z" fill="#ECF5FE"/>
<path d="M14.8438 357.87L19.3808 360.497V353.898L14.8438 351.271V357.87Z" fill="#36B1BA"/>
<path d="M22.5156 355.703L39.3069 365.383V371.982L22.5156 362.302V355.703Z" fill="#36B1BA"/>
<path d="M49.7539 371.423L70.9308 383.654V390.229L49.7539 378.022V371.423Z" fill="#36B1BA"/>
<path d="M138.02 298.911V298.934L81.5777 331.527L81.502 358.714L137.945 326.122V326.098C139.016 325.51 139.523 324.695 139.523 323.879L139.599 296.692C139.599 297.507 139.063 298.299 138.02 298.911Z" fill="#36B1BA"/>
<path d="M73.9604 331.527L17.9021 298.952C17.2148 298.521 16.3179 296.972 16.3179 296.745L16.2422 323.932C16.2422 324.165 16.4926 325.231 17.7681 326.122L73.8497 358.715C75.9406 359.938 79.3769 359.938 81.4911 358.715L81.5668 331.527C79.4526 332.727 76.0396 332.727 73.9487 331.527H73.9604Z" fill="#63D2DA"/>
<path d="M143.537 278.718V278.747L82.1089 314.217L82.0273 352.203L143.456 316.733V316.704C144.62 316.063 145.174 315.178 145.174 314.293L145.255 276.307C145.255 277.192 144.673 278.054 143.537 278.718Z" fill="url(#paint29_linear_1129_11031)"/>
<path d="M73.8144 314.217L12.8055 278.765C12.0542 278.294 11.0815 276.61 11.0815 276.366L11 314.351C11 314.602 11.2737 315.761 12.6657 316.734L73.7037 352.203C75.981 353.537 79.7202 353.537 82.0208 352.203L82.1023 314.217C79.8017 315.522 76.0859 315.522 73.8086 314.217H73.8144Z" fill="#ECF5FE"/>
<path d="M12.805 273.937C10.5103 275.265 10.487 277.426 12.7817 278.754L73.8081 314.223C76.1029 315.551 79.7954 315.551 82.1135 314.223L143.524 278.754C145.819 277.426 145.842 275.265 143.548 273.937L82.5212 238.491C80.2264 237.163 76.5338 237.163 74.2158 238.491L12.805 273.937Z" fill="url(#paint30_linear_1129_11031)"/>
<path d="M143.385 312.674L83.8848 347.048V318.37L143.385 284.024V312.68V312.674Z" fill="#63D2DA"/>
<path d="M95.1252 320.047L85.7773 325.464V332.039L95.1252 326.646V320.047Z" fill="#ECF5FE"/>
<path d="M123.793 309.71L141.86 299.261V292.686L123.793 303.105V309.704V309.71Z" fill="#ECF5FE"/>
<path d="M114.595 325.278L109.348 328.376V321.801L114.595 318.702V325.278Z" fill="#ECF5FE"/>
<path d="M122.162 310.781L116.914 313.88V307.304L122.162 304.206V310.781Z" fill="#36B1BA"/>
<path d="M115.4 314.794L110.152 317.892V311.317L115.4 308.218V314.794Z" fill="#36B1BA"/>
<path d="M108.644 318.807L103.396 321.906V315.33L108.644 312.231V318.807Z" fill="#36B1BA"/>
<path d="M101.882 322.814L96.6348 325.912V319.337L101.882 316.238V322.814Z" fill="#ECF5FE"/>
<path d="M141.859 309.558L137.322 312.185V305.586L141.859 302.959V309.558Z" fill="#36B1BA"/>
<path d="M134.188 307.392L117.396 317.071V323.67L134.188 313.99V307.392Z" fill="#36B1BA"/>
<path d="M106.948 323.111L85.7715 335.342V341.917L106.948 329.71V323.111Z" fill="#36B1BA"/>
<path d="M138.02 250.599V250.622L81.5777 283.215L81.502 310.402L137.945 277.81V277.786C139.016 277.198 139.523 276.383 139.523 275.567L139.599 248.38C139.599 249.195 139.063 249.987 138.02 250.599Z" fill="#36B1BA"/>
<path d="M73.9604 283.215L17.9021 250.64C17.2148 250.209 16.3179 248.66 16.3179 248.433L16.2422 275.62C16.2422 275.853 16.4926 276.919 17.7681 277.81L73.8497 310.403C75.9406 311.626 79.3769 311.626 81.4911 310.403L81.5668 283.215C79.4526 284.415 76.0396 284.415 73.9487 283.215H73.9604Z" fill="#63D2DA"/>
<path d="M143.537 229.836V229.865L82.1089 265.335L82.0273 303.32L143.456 267.851V267.821C144.62 267.181 145.174 266.296 145.174 265.41L145.255 227.425C145.255 228.31 144.673 229.172 143.537 229.836Z" fill="url(#paint31_linear_1129_11031)"/>
<path d="M73.8144 265.335L12.8055 229.883C12.0542 229.411 11.0815 227.728 11.0815 227.483L11 265.469C11 265.719 11.2737 266.878 12.6657 267.851L73.7037 303.32C75.981 304.654 79.7202 304.654 82.0208 303.32L82.1023 265.335C79.8017 266.639 76.0859 266.639 73.8086 265.335H73.8144Z" fill="#ECF5FE"/>
<path d="M12.805 225.054C10.5103 226.382 10.487 228.543 12.7817 229.871L73.8081 265.34C76.1029 266.668 79.7954 266.668 82.1135 265.34L143.524 229.871C145.819 228.543 145.842 226.382 143.548 225.054L82.5212 189.608C80.2264 188.28 76.5338 188.28 74.2158 189.608L12.805 225.054Z" fill="url(#paint32_linear_1129_11031)"/>
<path d="M13.3184 263.785L72.8188 298.16V269.481L13.3184 235.136V263.791V263.785Z" fill="#B0E9EA"/>
<path d="M62.5977 271.374L70.9321 276.191V282.766L62.5977 277.973V271.374Z" fill="#36B1BA"/>
<path d="M32.9105 260.826L14.8438 250.377V243.802L32.9105 254.221V260.82V260.826Z" fill="#ECF5FE"/>
<path d="M59.1839 275.987L36.8887 263.121V256.522L59.1839 269.417V275.993V275.987Z" fill="#36B1BA"/>
<path d="M42.1074 276.394L46.6445 279.021V272.446L42.1074 269.819V276.394Z" fill="#ECF5FE"/>
<path d="M14.8438 260.669L19.3808 263.296V256.697L14.8438 254.07V260.669Z" fill="#36B1BA"/>
<path d="M22.5156 258.502L39.3069 268.182V274.781L22.5156 265.101V258.502Z" fill="#36B1BA"/>
<path d="M49.7539 274.228L70.9308 286.459V293.034L49.7539 280.827V274.228Z" fill="#36B1BA"/>
<path d="M138.02 201.315V201.338L81.5777 233.93L81.502 261.118L137.945 228.526V228.502C139.016 227.914 139.523 227.099 139.523 226.283L139.599 199.096C139.599 199.911 139.063 200.703 138.02 201.315Z" fill="#36B1BA"/>
<path d="M73.9604 233.93L17.9021 201.355C17.2148 200.924 16.3179 199.375 16.3179 199.148L16.2422 226.335C16.2422 226.568 16.4926 227.634 17.7681 228.525L73.8497 261.118C75.9406 262.341 79.3769 262.341 81.4911 261.118L81.5668 233.93C79.4526 235.13 76.0396 235.13 73.9487 233.93H73.9604Z" fill="#63D2DA"/>
<path d="M143.501 196.265L82.0907 231.746C80.9491 232.375 79.4814 232.701 78.0137 232.73C76.5111 232.73 74.956 232.398 73.7853 231.734C73.7853 231.734 13.784 197.068 12.8114 196.282C11.4776 195.205 11.0816 193.993 11.0816 193.871L11.0059 210.738C11.0059 211.449 11.2505 212.246 12.6891 213.132L73.6921 248.601C74.857 249.283 76.2432 249.591 77.9147 249.591C79.5863 249.591 80.9025 249.236 82.0208 248.601V248.584L143.432 213.126C144.579 212.462 145.161 211.571 145.161 210.703L145.26 193.848C145.26 194.739 144.678 195.589 143.507 196.253L143.501 196.265Z" fill="url(#paint33_linear_1129_11031)"/>
<path d="M12.805 191.436C10.5103 192.764 10.487 194.925 12.7817 196.253L73.8081 231.723C76.1029 233.051 79.7954 233.051 82.1135 231.723L143.524 196.253C145.819 194.925 145.842 192.764 143.548 191.436L82.5212 155.996C80.2264 154.668 76.5338 154.668 74.2158 155.996L12.805 191.436Z" fill="#9FE4FB"/>
<path d="M121.84 195.385C121.485 195.944 120.897 196.48 120.134 196.917L83.4937 218.065C80.535 219.771 75.7708 219.771 72.8412 218.065L36.2009 196.917C35.4088 196.486 34.8497 195.95 34.4944 195.385C33.4751 193.83 34.0634 192.025 36.2009 190.772L72.8412 169.625C75.7941 167.918 80.5641 167.918 83.4937 169.625L120.134 190.772C122.271 191.996 122.86 193.83 121.84 195.385Z" fill="#36B1BA"/>
<path opacity="0.7" fill-rule="evenodd" clip-rule="evenodd" d="M79.2129 168.384V219.305C76.9473 219.492 74.5768 219.078 72.8412 218.071L36.2009 196.923C35.4088 196.492 34.8497 195.956 34.4944 195.391C33.4751 193.836 34.0634 192.03 36.2009 190.778L72.8412 169.63C74.5826 168.623 76.9589 168.209 79.2129 168.39V168.384Z" fill="url(#paint34_linear_1129_11031)"/>
<path d="M411.689 345.524C411.314 345.524 411.014 345.22 411.014 344.85V211.664C411.014 204.252 407.056 197.292 400.677 193.508L232.118 93.4659L108.85 164.636C108.524 164.823 108.113 164.712 107.925 164.39C107.738 164.068 107.849 163.653 108.171 163.465L231.788 92.0944C231.998 91.9738 232.261 91.9738 232.471 92.0944L401.369 192.338C408.155 196.363 412.368 203.765 412.368 211.655V344.841C412.368 345.216 412.064 345.515 411.693 345.515L411.689 345.524Z" fill="#40CBCB"/>
<path d="M177.084 403.1C176.709 403.1 176.409 402.796 176.409 402.425V250.432C176.409 242.913 172.366 235.908 165.853 232.147L79.8916 182.514C79.5699 182.326 79.4582 181.915 79.6459 181.589C79.829 181.268 80.2445 181.156 80.5706 181.344L166.532 230.976C173.461 234.974 177.763 242.431 177.763 250.427V402.421C177.763 402.796 177.459 403.095 177.088 403.095L177.084 403.1Z" fill="#40CBCB"/>
<path d="M177.482 412.883C172.8 412.883 168.118 411.856 164.553 409.797C160.97 407.728 159 404.94 159 401.943C159 398.945 160.975 396.153 164.553 394.089C171.683 389.97 183.285 389.97 190.415 394.089C193.997 396.158 195.968 398.945 195.968 401.943C195.968 404.94 193.993 407.733 190.415 409.797C186.85 411.856 182.168 412.883 177.482 412.883ZM177.482 392.329C173.041 392.329 168.605 393.303 165.228 395.255C162.082 397.073 160.349 399.446 160.349 401.943C160.349 404.44 162.082 406.812 165.228 408.631C171.987 412.531 182.981 412.531 189.736 408.631C192.881 406.812 194.614 404.44 194.614 401.943C194.614 399.446 192.881 397.073 189.736 395.255C186.358 393.307 181.918 392.329 177.482 392.329Z" fill="#40CBCB"/>
<path d="M472.5 163.5C472.125 163.5 471.825 163.196 471.825 162.825V50.6145C471.825 43.0512 467.742 36.024 461.171 32.2759L407.346 4.03357C401.034 0.437332 393.211 0.459669 386.921 4.08718L207.78 107.516C207.453 107.704 207.042 107.592 206.855 107.27C206.667 106.949 206.779 106.533 207.101 106.345L386.242 2.92119C392.943 -0.952022 401.288 -0.974359 408.012 2.85865L461.836 31.0965C468.828 35.0859 473.175 42.5643 473.175 50.61V162.825C473.175 163.201 472.871 163.5 472.5 163.5Z" fill="#40CBCB"/>
<path d="M141.778 118.474L118.311 104.84C114.809 102.758 109.939 103.022 104.552 106.131C102.792 107.145 101.09 108.409 99.4723 109.852L90.0193 104.389C84.8238 100.739 77.3052 100.9 68.9378 105.729C58.3546 111.84 49.1294 123.862 44.2466 136.599C42.6294 136.652 40.8291 137.184 38.9215 138.283C32.0149 142.272 26.4128 151.971 26.4128 159.945C26.4128 160.115 26.4307 160.276 26.4352 160.441C24.4651 160.575 22.2894 161.272 19.9977 162.594C11.1612 167.7 4 180.106 4 190.31C4 195.367 5.76461 198.927 8.6148 200.616H8.60587L8.67734 200.661C8.68181 200.661 8.68628 200.665 8.69075 200.67L31.8496 214.112L36.9067 189.778L104.547 150.724C113.192 145.734 120.509 134.95 122.971 124.483L141.774 118.474H141.778Z" fill="#312A91"/>
<g opacity="0.7">
<path d="M141.778 118.474L118.311 104.84C114.809 102.758 109.939 103.022 104.552 106.131C102.792 107.145 101.09 108.409 99.4723 109.852L90.0193 104.389C84.8238 100.739 77.3052 100.9 68.9378 105.729C58.3546 111.84 49.1294 123.862 44.2466 136.599C42.6294 136.652 40.8291 137.184 38.9215 138.283C32.0149 142.272 26.4128 151.971 26.4128 159.945C26.4128 160.115 26.4307 160.276 26.4352 160.441C24.4651 160.575 22.2894 161.272 19.9977 162.594C11.1612 167.7 4 180.106 4 190.31C4 195.367 5.76461 198.927 8.6148 200.616H8.60587L8.67734 200.661C8.68181 200.661 8.68628 200.665 8.69075 200.67L31.8496 214.112L36.9067 189.778L104.547 150.724C113.192 145.734 120.509 134.95 122.971 124.483L141.774 118.474H141.778Z" fill="url(#paint35_linear_1129_11031)" style="mix-blend-mode:lighten"/>
</g>
<path d="M141.778 118.474L118.311 104.84C114.809 102.758 109.939 103.022 104.552 106.131C102.792 107.145 101.09 108.409 99.4723 109.852L90.0193 104.389C84.8238 100.739 77.3052 100.9 68.9378 105.729C58.3546 111.84 49.1294 123.862 44.2466 136.599C42.6294 136.652 40.8291 137.184 38.9215 138.283C32.0149 142.272 26.4128 151.971 26.4128 159.945C26.4128 160.115 26.4307 160.276 26.4352 160.441C24.4651 160.575 22.2894 161.272 19.9977 162.594C11.1612 167.7 4 180.106 4 190.31C4 195.367 5.76461 198.927 8.6148 200.616H8.60587L8.67734 200.661C8.68181 200.661 8.68628 200.665 8.69075 200.67L31.8496 214.112L36.9067 189.778L104.547 150.724C113.192 145.734 120.509 134.95 122.971 124.483L141.774 118.474H141.778Z" fill="url(#paint36_linear_1129_11031)"/>
<path d="M127.787 119.618C124.753 121.37 121.881 123.836 119.325 126.753C115.778 115.365 104.967 111.832 92.1683 119.221C81.585 125.332 72.3599 137.354 67.4771 150.09C65.8599 150.144 64.0595 150.676 62.152 151.775C55.2454 155.764 49.6433 165.463 49.6433 173.437C49.6433 173.607 49.6612 173.767 49.6656 173.933C47.6955 174.067 45.5199 174.764 43.2281 176.086C34.3917 181.188 27.2305 193.594 27.2305 203.793C27.2305 213.992 34.3917 218.129 43.2281 213.027L127.787 164.207C138.45 158.051 147.095 143.077 147.095 130.765C147.095 118.452 138.45 113.458 127.787 119.618Z" fill="url(#paint37_linear_1129_11031)"/>
<g opacity="0.7">
<path d="M127.787 119.618C124.753 121.37 121.881 123.836 119.325 126.753C115.778 115.365 104.967 111.832 92.1683 119.221C81.585 125.332 72.3599 137.354 67.4771 150.09C65.8599 150.144 64.0595 150.676 62.152 151.775C55.2454 155.764 49.6433 165.463 49.6433 173.437C49.6433 173.607 49.6612 173.767 49.6656 173.933C47.6955 174.067 45.5199 174.764 43.2281 176.086C34.3917 181.188 27.2305 193.594 27.2305 203.793C27.2305 213.992 34.3917 218.129 43.2281 213.027L127.787 164.207C138.45 158.051 147.095 143.077 147.095 130.765C147.095 118.452 138.45 113.458 127.787 119.618Z" fill="url(#paint38_linear_1129_11031)" style="mix-blend-mode:lighten"/>
</g>
<path d="M127.787 119.618C124.753 121.37 121.881 123.836 119.325 126.753C115.778 115.365 104.967 111.832 92.1683 119.221C81.585 125.332 72.3599 137.354 67.4771 150.09C65.8599 150.144 64.0595 150.676 62.152 151.775C55.2454 155.764 49.6433 165.463 49.6433 173.437C49.6433 173.607 49.6612 173.767 49.6656 173.933C47.6955 174.067 45.5199 174.764 43.2281 176.086C34.3917 181.188 27.2305 193.594 27.2305 203.793C27.2305 213.992 34.3917 218.129 43.2281 213.027L127.787 164.207C138.45 158.051 147.095 143.077 147.095 130.765C147.095 118.452 138.45 113.458 127.787 119.618Z" fill="url(#paint39_linear_1129_11031)"/>
<path opacity="0.7" d="M120.352 128.039C122.907 125.122 125.775 122.656 128.813 120.905C135.358 117.125 141.134 117.563 144.628 121.298C141.322 116.406 135.023 115.441 127.79 119.618C124.909 121.28 122.184 123.603 119.727 126.328C119.95 126.882 120.169 127.44 120.352 128.035V128.039Z" fill="#9ACDFF"/>
<path d="M28.2574 205.079C28.2574 194.876 35.4186 182.474 44.2551 177.373C46.5468 176.05 48.7225 175.353 50.6926 175.219C50.6881 175.054 50.6702 174.893 50.6702 174.723C50.6702 166.749 56.2723 157.05 63.1789 153.061C65.0865 151.958 66.8868 151.426 68.504 151.377C73.3868 138.64 82.612 126.619 93.1952 120.507C103.01 114.843 111.645 115.62 116.743 121.419C111.833 114.463 102.675 113.158 92.1722 119.221C81.5889 125.332 72.3638 137.354 67.481 150.09C65.8638 150.144 64.0634 150.675 62.1559 151.774C55.2493 155.764 49.6472 165.463 49.6472 173.437C49.6472 173.607 49.6651 173.767 49.6695 173.933C47.6994 174.067 45.5238 174.764 43.2321 176.086C34.3956 181.188 27.2344 193.594 27.2344 203.793C27.2344 207.764 28.3289 210.802 30.1784 212.75C28.9543 210.847 28.2574 208.256 28.2574 205.079Z" fill="#9ACDFF"/>
<path d="M472.482 174.883C467.8 174.883 463.118 173.856 459.553 171.796C455.97 169.728 454 166.94 454 163.943C454 160.945 455.97 158.153 459.553 156.089C466.683 151.97 478.285 151.97 485.415 156.089C488.997 158.158 490.968 160.945 490.968 163.943C490.968 166.94 488.993 169.733 485.415 171.796C481.85 173.856 477.168 174.883 472.486 174.883H472.482ZM472.482 154.329C468.041 154.329 463.605 155.303 460.223 157.255C457.078 159.073 455.345 161.446 455.345 163.943C455.345 166.44 457.078 168.812 460.223 170.63C466.982 174.531 477.976 174.531 484.731 170.63C487.876 168.812 489.609 166.44 489.609 163.943C489.609 161.446 487.876 159.073 484.731 157.255C481.354 155.307 476.913 154.329 472.477 154.329H472.482Z" fill="#40CBCB"/>
<path d="M411.689 355.791C407.007 355.791 402.325 354.763 398.76 352.704C395.177 350.635 393.207 347.848 393.207 344.85C393.207 341.852 395.182 339.06 398.76 336.996C405.89 332.877 417.492 332.877 424.622 336.996C428.204 339.065 430.175 341.852 430.175 344.85C430.175 347.848 428.2 350.64 424.622 352.704C421.057 354.763 416.375 355.791 411.689 355.791ZM411.689 335.236C407.248 335.236 402.812 336.21 399.435 338.162C396.29 339.981 394.556 342.353 394.556 344.85C394.556 347.347 396.29 349.72 399.435 351.538C406.194 355.438 417.188 355.438 423.943 351.538C427.088 349.72 428.821 347.347 428.821 344.85C428.821 342.353 427.088 339.981 423.943 338.162C420.565 336.215 416.125 335.236 411.689 335.236Z" fill="#40CBCB"/>
<defs>
<radialGradient id="paint0_radial_1129_11031" cx="0" cy="0" r="1" gradientUnits="userSpaceOnUse" gradientTransform="translate(325.11 192.335) scale(182.573 182.573)">
<stop stop-color="#42E8E0"/>
<stop offset="0.02" stop-color="#3FD7D7"/>
<stop offset="0.06" stop-color="#39AEC0"/>
<stop offset="0.11" stop-color="#3489AB"/>
<stop offset="0.17" stop-color="#306899"/>
<stop offset="0.23" stop-color="#2C4D8A"/>
<stop offset="0.3" stop-color="#29377E"/>
<stop offset="0.38" stop-color="#262675"/>
<stop offset="0.47" stop-color="#251A6E"/>
<stop offset="0.61" stop-color="#24136B"/>
<stop offset="1" stop-color="#24126A"/>
</radialGradient>
<radialGradient id="paint1_radial_1129_11031" cx="0" cy="0" r="1" gradientUnits="userSpaceOnUse" gradientTransform="translate(441.578 246.187) scale(323.363 330.933)">
<stop stop-color="#00B2FF"/>
<stop offset="1" stop-color="#180D5B"/>
</radialGradient>
<linearGradient id="paint2_linear_1129_11031" x1="360" y1="169.641" x2="591.951" y2="169.641" gradientUnits="userSpaceOnUse">
<stop stop-color="#180D5B"/>
<stop offset="0.09" stop-color="#191560"/>
<stop offset="0.25" stop-color="#1E2C6E"/>
<stop offset="0.44" stop-color="#255285"/>
<stop offset="0.66" stop-color="#2F87A5"/>
<stop offset="0.9" stop-color="#3CC9CD"/>
<stop offset="1" stop-color="#42E8E0"/>
</linearGradient>
<radialGradient id="paint3_radial_1129_11031" cx="0" cy="0" r="1" gradientUnits="userSpaceOnUse" gradientTransform="translate(357.7 191.696) scale(93.453 93.4531)">
<stop stop-color="#42E8E0"/>
<stop offset="0.1" stop-color="#3CC9CD"/>
<stop offset="0.34" stop-color="#2F87A5"/>
<stop offset="0.56" stop-color="#255285"/>
<stop offset="0.75" stop-color="#1E2C6E"/>
<stop offset="0.91" stop-color="#191560"/>
<stop offset="1" stop-color="#180D5B"/>
</radialGradient>
<radialGradient id="paint4_radial_1129_11031" cx="0" cy="0" r="1" gradientUnits="userSpaceOnUse" gradientTransform="translate(362.931 170.177) scale(192.705 192.705)">
<stop stop-color="#42E8E0"/>
<stop offset="0.1" stop-color="#3CC9CD"/>
<stop offset="0.34" stop-color="#2F87A5"/>
<stop offset="0.56" stop-color="#255285"/>
<stop offset="0.75" stop-color="#1E2C6E"/>
<stop offset="0.91" stop-color="#191560"/>
<stop offset="1" stop-color="#180D5B"/>
</radialGradient>
<radialGradient id="paint5_radial_1129_11031" cx="0" cy="0" r="1" gradientUnits="userSpaceOnUse" gradientTransform="translate(378.218 179.429) scale(157.707 157.707)">
<stop stop-color="#42E8E0"/>
<stop offset="0.1" stop-color="#3CC9CD"/>
<stop offset="0.34" stop-color="#2F87A5"/>
<stop offset="0.56" stop-color="#255285"/>
<stop offset="0.75" stop-color="#1E2C6E"/>
<stop offset="0.91" stop-color="#191560"/>
<stop offset="1" stop-color="#180D5B"/>
</radialGradient>
<radialGradient id="paint6_radial_1129_11031" cx="0" cy="0" r="1" gradientUnits="userSpaceOnUse" gradientTransform="translate(439.5 149.5) rotate(31.3377) scale(118.251 61.3569)">
<stop stop-color="#35B9F7"/>
<stop offset="1" stop-color="#1E6FE5"/>
</radialGradient>
<radialGradient id="paint7_radial_1129_11031" cx="0" cy="0" r="1" gradientUnits="userSpaceOnUse" gradientTransform="translate(357.83 179.429) scale(282.999 282.999)">
<stop stop-color="#42E8E0"/>
<stop offset="0.1" stop-color="#3CC9CD"/>
<stop offset="0.34" stop-color="#2F87A5"/>
<stop offset="0.56" stop-color="#255285"/>
<stop offset="0.75" stop-color="#1E2C6E"/>
<stop offset="0.91" stop-color="#191560"/>
<stop offset="1" stop-color="#180D5B"/>
</radialGradient>
<radialGradient id="paint8_radial_1129_11031" cx="0" cy="0" r="1" gradientUnits="userSpaceOnUse" gradientTransform="translate(157.529 353.016) scale(270.535 270.535)">
<stop stop-color="#42E8E0"/>
<stop offset="0.02" stop-color="#3FD7D7"/>
<stop offset="0.06" stop-color="#39AEC0"/>
<stop offset="0.11" stop-color="#3489AB"/>
<stop offset="0.17" stop-color="#306899"/>
<stop offset="0.23" stop-color="#2C4D8A"/>
<stop offset="0.3" stop-color="#29377E"/>
<stop offset="0.38" stop-color="#262675"/>
<stop offset="0.47" stop-color="#251A6E"/>
<stop offset="0.61" stop-color="#24136B"/>
<stop offset="1" stop-color="#24126A"/>
</radialGradient>
<radialGradient id="paint9_radial_1129_11031" cx="0" cy="0" r="1" gradientUnits="userSpaceOnUse" gradientTransform="translate(330.078 433.487) scale(479.077 479.077)">
<stop stop-color="#00B2FF"/>
<stop offset="1" stop-color="#180D5B"/>
</radialGradient>
<linearGradient id="paint10_linear_1129_11031" x1="209.216" y1="321.289" x2="552.86" y2="321.289" gradientUnits="userSpaceOnUse">
<stop stop-color="#180D5B"/>
<stop offset="0.09" stop-color="#191560"/>
<stop offset="0.25" stop-color="#1E2C6E"/>
<stop offset="0.44" stop-color="#255285"/>
<stop offset="0.66" stop-color="#2F87A5"/>
<stop offset="0.9" stop-color="#3CC9CD"/>
<stop offset="1" stop-color="#42E8E0"/>
</linearGradient>
<radialGradient id="paint11_radial_1129_11031" cx="0" cy="0" r="1" gradientUnits="userSpaceOnUse" gradientTransform="translate(205.808 353.231) scale(138.515 138.515)">
<stop stop-color="#42E8E0"/>
<stop offset="0.1" stop-color="#3CC9CD"/>
<stop offset="0.34" stop-color="#2F87A5"/>
<stop offset="0.56" stop-color="#255285"/>
<stop offset="0.75" stop-color="#1E2C6E"/>
<stop offset="0.91" stop-color="#191560"/>
<stop offset="1" stop-color="#180D5B"/>
</radialGradient>
<radialGradient id="paint12_radial_1129_11031" cx="0" cy="0" r="1" gradientUnits="userSpaceOnUse" gradientTransform="translate(213.558 322.406) scale(285.514 285.515)">
<stop stop-color="#42E8E0"/>
<stop offset="0.1" stop-color="#3CC9CD"/>
<stop offset="0.34" stop-color="#2F87A5"/>
<stop offset="0.56" stop-color="#255285"/>
<stop offset="0.75" stop-color="#1E2C6E"/>
<stop offset="0.91" stop-color="#191560"/>
<stop offset="1" stop-color="#180D5B"/>
</radialGradient>
<radialGradient id="paint13_radial_1129_11031" cx="0" cy="0" r="1" gradientUnits="userSpaceOnUse" gradientTransform="translate(218.998 345) rotate(-7.25477) scale(328.631 328.631)">
<stop stop-color="#1969E2"/>
<stop offset="1" stop-color="#003FAA"/>
</radialGradient>
<radialGradient id="paint14_radial_1129_11031" cx="0" cy="0" r="1" gradientUnits="userSpaceOnUse" gradientTransform="translate(206.081 336.13) scale(410.422 410.422)">
<stop stop-color="#42E8E0"/>
<stop offset="0.1" stop-color="#3CC9CD"/>
<stop offset="0.34" stop-color="#2F87A5"/>
<stop offset="0.56" stop-color="#255285"/>
<stop offset="0.75" stop-color="#1E2C6E"/>
<stop offset="0.91" stop-color="#191560"/>
<stop offset="1" stop-color="#180D5B"/>
</radialGradient>
<linearGradient id="paint15_linear_1129_11031" x1="227.435" y1="124.738" x2="378.79" y2="291.34" gradientUnits="userSpaceOnUse">
<stop stop-color="#4298E8"/>
<stop offset="0.56" stop-color="#255285"/>
<stop offset="1" stop-color="#180D5B"/>
</linearGradient>
<linearGradient id="paint16_linear_1129_11031" x1="213" y1="338" x2="403" y2="71.0002" gradientUnits="userSpaceOnUse">
<stop stop-color="#119AD5"/>
<stop offset="1" stop-color="#1F68E7"/>
</linearGradient>
<linearGradient id="paint17_linear_1129_11031" x1="256.314" y1="149.518" x2="386.542" y2="310.353" gradientUnits="userSpaceOnUse">
<stop stop-color="#42E8E0"/>
<stop offset="0.1" stop-color="#3CC9CD"/>
<stop offset="0.34" stop-color="#2F87A5"/>
<stop offset="0.56" stop-color="#255285"/>
<stop offset="0.75" stop-color="#1E2C6E"/>
<stop offset="0.91" stop-color="#191560"/>
<stop offset="1" stop-color="#180D5B"/>
</linearGradient>
<radialGradient id="paint18_radial_1129_11031" cx="0" cy="0" r="1" gradientUnits="userSpaceOnUse" gradientTransform="translate(211.055 291.88) scale(325.256 201.103)">
<stop stop-color="#2DA5C4"/>
<stop offset="1" stop-color="#00147B"/>
</radialGradient>
<radialGradient id="paint19_radial_1129_11031" cx="0" cy="0" r="1" gradientUnits="userSpaceOnUse" gradientTransform="translate(87.2767 418.271) scale(108.651 108.651)">
<stop stop-color="#42E8E0"/>
<stop offset="0.02" stop-color="#3FD7D7"/>
<stop offset="0.06" stop-color="#39AEC0"/>
<stop offset="0.11" stop-color="#3489AB"/>
<stop offset="0.17" stop-color="#306899"/>
<stop offset="0.23" stop-color="#2C4D8A"/>
<stop offset="0.3" stop-color="#29377E"/>
<stop offset="0.38" stop-color="#262675"/>
<stop offset="0.47" stop-color="#251A6E"/>
<stop offset="0.61" stop-color="#24136B"/>
<stop offset="1" stop-color="#24126A"/>
</radialGradient>
<radialGradient id="paint20_radial_1129_11031" cx="0" cy="0" r="1" gradientUnits="userSpaceOnUse" gradientTransform="translate(156.605 449.883) scale(192.493 210.684)">
<stop stop-color="#00B2FF"/>
<stop offset="1" stop-color="#180D5B"/>
</radialGradient>
<linearGradient id="paint21_linear_1129_11031" x1="108.045" y1="403.148" x2="246.123" y2="403.148" gradientUnits="userSpaceOnUse">
<stop stop-color="#180D5B"/>
<stop offset="0.09" stop-color="#191560"/>
<stop offset="0.25" stop-color="#1E2C6E"/>
<stop offset="0.44" stop-color="#255285"/>
<stop offset="0.66" stop-color="#2F87A5"/>
<stop offset="0.9" stop-color="#3CC9CD"/>
<stop offset="1" stop-color="#42E8E0"/>
</linearGradient>
<radialGradient id="paint22_radial_1129_11031" cx="0" cy="0" r="1" gradientUnits="userSpaceOnUse" gradientTransform="translate(106.674 416.913) scale(55.5876 55.5876)">
<stop stop-color="#42E8E0"/>
<stop offset="0.1" stop-color="#3CC9CD"/>
<stop offset="0.34" stop-color="#2F87A5"/>
<stop offset="0.56" stop-color="#255285"/>
<stop offset="0.75" stop-color="#1E2C6E"/>
<stop offset="0.91" stop-color="#191560"/>
<stop offset="1" stop-color="#180D5B"/>
</radialGradient>
<radialGradient id="paint23_radial_1129_11031" cx="0" cy="0" r="1" gradientUnits="userSpaceOnUse" gradientTransform="translate(109.787 403.198) scale(114.713)">
<stop stop-color="#42E8E0"/>
<stop offset="0.1" stop-color="#3CC9CD"/>
<stop offset="0.34" stop-color="#2F87A5"/>
<stop offset="0.56" stop-color="#255285"/>
<stop offset="0.75" stop-color="#1E2C6E"/>
<stop offset="0.91" stop-color="#191560"/>
<stop offset="1" stop-color="#180D5B"/>
</radialGradient>
<radialGradient id="paint24_radial_1129_11031" cx="0" cy="0" r="1" gradientUnits="userSpaceOnUse" gradientTransform="translate(118.887 408.706) scale(93.8819 93.8819)">
<stop stop-color="#42E8E0"/>
<stop offset="0.1" stop-color="#3CC9CD"/>
<stop offset="0.34" stop-color="#2F87A5"/>
<stop offset="0.56" stop-color="#255285"/>
<stop offset="0.75" stop-color="#1E2C6E"/>
<stop offset="0.91" stop-color="#191560"/>
<stop offset="1" stop-color="#180D5B"/>
</radialGradient>
<radialGradient id="paint25_radial_1129_11031" cx="0" cy="0" r="1" gradientUnits="userSpaceOnUse" gradientTransform="translate(155.373 390.891) rotate(5.16166) scale(67.9026 38.1464)">
<stop stop-color="#35B9F7"/>
<stop offset="1" stop-color="#1E6FE5"/>
</radialGradient>
<radialGradient id="paint26_radial_1129_11031" cx="0" cy="0" r="1" gradientUnits="userSpaceOnUse" gradientTransform="translate(106.674 408.702) scale(177.292 177.292)">
<stop stop-color="#42E8E0"/>
<stop offset="0.1" stop-color="#3CC9CD"/>
<stop offset="0.34" stop-color="#2F87A5"/>
<stop offset="0.56" stop-color="#255285"/>
<stop offset="0.75" stop-color="#1E2C6E"/>
<stop offset="0.91" stop-color="#191560"/>
<stop offset="1" stop-color="#180D5B"/>
</radialGradient>
<linearGradient id="paint27_linear_1129_11031" x1="82.0215" y1="362.565" x2="145.255" y2="362.565" gradientUnits="userSpaceOnUse">
<stop stop-color="#E1F3FF"/>
<stop offset="1" stop-color="#9EE3FA"/>
</linearGradient>
<linearGradient id="paint28_linear_1129_11031" x1="11.0752" y1="324.672" x2="145.26" y2="324.672" gradientUnits="userSpaceOnUse">
<stop stop-color="#B9D7FF"/>
<stop offset="1" stop-color="#69CCDA"/>
</linearGradient>
<linearGradient id="paint29_linear_1129_11031" x1="-24.5388" y1="314.252" x2="-23.9563" y2="314.252" gradientUnits="userSpaceOnUse">
<stop stop-color="#E1F3FF"/>
<stop offset="1" stop-color="#9EE3FA"/>
</linearGradient>
<linearGradient id="paint30_linear_1129_11031" x1="-24.54" y1="276.36" x2="-23.9576" y2="276.36" gradientUnits="userSpaceOnUse">
<stop stop-color="#B9D7FF"/>
<stop offset="1" stop-color="#69CCDA"/>
</linearGradient>
<linearGradient id="paint31_linear_1129_11031" x1="-24.5388" y1="265.369" x2="-23.9563" y2="265.369" gradientUnits="userSpaceOnUse">
<stop stop-color="#E1F3FF"/>
<stop offset="1" stop-color="#9EE3FA"/>
</linearGradient>
<linearGradient id="paint32_linear_1129_11031" x1="-24.54" y1="227.477" x2="-23.9576" y2="227.477" gradientUnits="userSpaceOnUse">
<stop stop-color="#B9D7FF"/>
<stop offset="1" stop-color="#69CCDA"/>
</linearGradient>
<linearGradient id="paint33_linear_1129_11031" x1="11" y1="221.728" x2="-23.957" y2="221.728" gradientUnits="userSpaceOnUse">
<stop stop-color="#E1F3FF"/>
<stop offset="1" stop-color="#9EE3FA"/>
</linearGradient>
<linearGradient id="paint34_linear_1129_11031" x1="33.5916" y1="193.842" x2="92.0786" y2="193.842" gradientUnits="userSpaceOnUse">
<stop stop-color="#E1F3FF"/>
<stop offset="1" stop-color="#9EE3FA"/>
</linearGradient>
<linearGradient id="paint35_linear_1129_11031" x1="166.621" y1="183.957" x2="35.4548" y2="148.625" gradientUnits="userSpaceOnUse">
<stop stop-color="#180D5B"/>
<stop offset="0.09" stop-color="#191560"/>
<stop offset="0.25" stop-color="#1E2C6E"/>
<stop offset="0.44" stop-color="#255285"/>
<stop offset="0.66" stop-color="#2F87A5"/>
<stop offset="0.9" stop-color="#3CC9CD"/>
<stop offset="1" stop-color="#42E8E0"/>
</linearGradient>
<linearGradient id="paint36_linear_1129_11031" x1="28.5" y1="121" x2="125.679" y2="181.168" gradientUnits="userSpaceOnUse">
<stop stop-color="#7CC0FF"/>
<stop offset="0.56" stop-color="#4392EC"/>
<stop offset="1" stop-color="#361FC0"/>
</linearGradient>
<linearGradient id="paint37_linear_1129_11031" x1="-39.3036" y1="227.907" x2="80.5615" y2="158.703" gradientUnits="userSpaceOnUse">
<stop stop-color="#2B237C"/>
<stop offset="1" stop-color="#180D5B"/>
</linearGradient>
<linearGradient id="paint38_linear_1129_11031" x1="183.284" y1="228.415" x2="-33.3917" y2="192.089" gradientUnits="userSpaceOnUse">
<stop stop-color="#180D5B"/>
<stop offset="0.09" stop-color="#191560"/>
<stop offset="0.25" stop-color="#1E2C6E"/>
<stop offset="0.44" stop-color="#255285"/>
<stop offset="0.66" stop-color="#2F87A5"/>
<stop offset="0.9" stop-color="#3CC9CD"/>
<stop offset="1" stop-color="#42E8E0"/>
</linearGradient>
<linearGradient id="paint39_linear_1129_11031" x1="40.3073" y1="215.149" x2="100.562" y2="94.8205" gradientUnits="userSpaceOnUse">
<stop stop-color="#119AD5"/>
<stop offset="1" stop-color="#1F68E7"/>
</linearGradient>
</defs>
</svg>
